<?xml version="1.0" standalone="no"?>
<!DOCTYPE svg PUBLIC "-//W3C//DTD SVG 20010904//EN"
 "http://www.w3.org/TR/2001/REC-SVG-20010904/DTD/svg10.dtd">
<svg version="1.0" xmlns="http://www.w3.org/2000/svg"
 width="512.000000pt" height="512.000000pt" viewBox="0 0 512.000000 512.000000"
 preserveAspectRatio="xMidYMid meet">
<metadata>
Created by potrace 1.11, written by Peter Selinger 2001-2013
</metadata>
<g transform="translate(0.000000,512.000000) scale(0.100000,-0.100000)"
fill="#000000" stroke="none">
<path d="M2275 4373 c-110 -16 -346 -69 -430 -97 -254 -86 -422 -189 -611
-380 -234 -235 -343 -435 -411 -756 -15 -69 -18 -131 -18 -325 0 -213 3 -252
23 -345 33 -147 68 -250 127 -362 94 -184 199 -313 408 -505 48 -44 77 -78 77
-91 0 -38 -36 -52 -135 -52 -113 0 -156 18 -216 91 -24 29 -60 70 -79 90 -84
87 -222 69 -275 -36 -19 -37 -20 -64 -23 -370 -4 -368 1 -415 50 -471 56 -64
56 -64 778 -64 721 0 722 0 778 64 49 56 56 110 48 361 -9 277 -21 395 -46
453 -15 32 -17 49 -10 56 15 15 467 21 503 7 l28 -11 -20 -38 c-27 -53 -39
-131 -51 -322 -26 -429 -6 -516 125 -556 71 -21 1359 -21 1430 0 62 19 102 59
120 120 22 73 22 670 0 744 -28 93 -122 141 -218 112 -42 -12 -69 -37 -157
-140 -61 -73 -109 -93 -225 -93 -97 -1 -147 15 -153 47 -3 13 36 57 133 149
166 159 267 290 340 441 104 216 152 405 162 636 13 324 -61 653 -198 881
-115 193 -279 371 -438 477 -113 76 -161 101 -301 157 -133 53 -229 79 -414
110 -134 23 -172 25 -409 24 -144 -1 -275 -4 -292 -6z m668 -208 c156 -27 285
-61 360 -94 27 -12 53 -21 59 -21 22 0 157 -75 236 -132 199 -144 352 -340
440 -564 62 -159 91 -302 99 -489 9 -226 -24 -402 -115 -618 -68 -159 -125
-247 -239 -367 -161 -170 -356 -290 -584 -361 -120 -37 -139 -56 -139 -136 0
-47 4 -59 28 -83 40 -39 84 -42 552 -38 466 5 458 3 557 105 35 34 65 63 68
63 3 0 4 -120 3 -268 l-3 -267 -655 0 -655 0 -4 35 c-5 53 20 532 30 558 5 14
29 31 63 46 84 37 141 80 249 185 142 138 243 307 317 530 39 117 80 319 80
395 0 22 5 79 12 124 12 88 4 195 -29 402 -41 261 -173 524 -337 677 -172 160
-315 222 -636 275 -93 15 -246 5 -390 -26 -246 -53 -364 -117 -536 -291 -99
-100 -116 -123 -166 -221 -68 -133 -120 -292 -148 -449 -28 -161 -28 -425 0
-604 33 -216 132 -470 252 -649 74 -110 227 -253 345 -321 50 -29 94 -59 97
-66 8 -22 30 -570 23 -588 -6 -16 -52 -17 -639 -15 l-633 3 -3 258 c-1 141 1
257 4 257 3 0 32 -24 64 -54 97 -89 97 -89 530 -94 446 -4 492 -1 532 38 24
24 28 36 28 83 0 77 -20 99 -123 132 -251 83 -443 206 -606 388 -122 137 -154
183 -207 296 -100 213 -134 370 -134 618 0 189 15 292 66 456 72 230 238 451
468 624 183 137 336 198 661 263 128 26 160 28 378 29 212 1 253 -2 380 -24z
m-170 -256 c249 -50 417 -158 546 -348 52 -77 51 -79 -67 -104 -49 -11 -100
-30 -136 -52 -32 -19 -66 -35 -76 -35 -9 0 -34 13 -54 29 -67 54 -85 56 -411
56 -332 0 -362 -5 -420 -65 -36 -38 -52 -38 -112 0 -26 17 -92 44 -146 61 -54
17 -101 37 -104 44 -7 19 75 133 145 201 188 186 535 274 835 213z m-885 -618
c2 -6 12 -11 23 -11 11 0 29 -6 41 -12 29 -17 78 -70 78 -84 0 -7 7 -14 15
-18 8 -3 15 -16 15 -30 0 -13 4 -26 9 -28 14 -5 31 -121 31 -215 0 -46 4 -83
9 -83 5 0 11 -22 15 -50 4 -27 11 -50 16 -50 5 0 11 -9 15 -20 8 -27 60 -77
88 -86 12 -4 25 -11 29 -17 3 -6 43 -12 87 -15 l82 -5 -3 309 -3 309 -24 24
c-18 18 -38 25 -87 29 -63 5 -64 5 -64 33 l0 29 315 0 315 0 0 -29 c0 -28 -1
-28 -67 -34 -37 -3 -69 -10 -71 -16 -2 -6 -9 -11 -16 -11 -6 0 -20 -10 -31
-22 -19 -22 -20 -41 -23 -322 l-3 -299 82 5 c50 3 85 10 87 16 2 7 10 12 18
12 39 0 134 90 134 127 0 7 4 13 9 13 14 0 31 108 31 202 0 48 4 88 9 88 4 0
11 23 14 52 4 28 10 54 14 57 5 3 15 20 23 36 19 38 73 92 102 101 13 4 26 11
29 17 4 5 41 12 83 15 72 4 76 3 76 -16 0 -29 -10 -52 -24 -52 -18 0 -44 -35
-55 -77 -6 -21 -11 -98 -11 -170 0 -73 -4 -133 -9 -133 -4 0 -11 -26 -14 -57
-3 -32 -11 -59 -17 -61 -5 -2 -10 -13 -10 -23 0 -25 -18 -61 -36 -72 -8 -4
-14 -15 -14 -22 0 -8 -4 -15 -10 -15 -5 0 -23 -14 -40 -30 -17 -17 -51 -36
-76 -42 -24 -7 -44 -16 -44 -20 0 -4 -22 -10 -50 -14 -27 -4 -50 -10 -50 -14
0 -4 -33 -10 -72 -14 -40 -4 -97 -9 -126 -12 l-53 -6 3 -265 c2 -173 7 -266
14 -271 6 -4 13 -14 16 -23 7 -18 49 -29 109 -29 37 0 39 -2 39 -30 l0 -30
-300 0 -300 0 0 30 c0 29 2 30 42 30 50 0 108 19 108 36 0 7 6 14 13 16 9 4
13 69 15 270 l3 266 -58 6 c-32 3 -88 8 -125 12 -38 3 -68 10 -68 14 0 4 -19
10 -41 13 -23 3 -45 9 -48 14 -3 5 -25 15 -48 21 -24 7 -43 17 -43 22 0 6 -6
10 -14 10 -14 0 -76 55 -76 69 0 4 -9 18 -20 31 -11 13 -20 33 -20 46 0 12 -5
24 -11 26 -7 2 -14 75 -19 197 -5 107 -13 197 -18 200 -5 3 -12 18 -16 34 -7
29 -35 67 -49 67 -16 0 -37 29 -37 51 0 21 3 21 77 17 45 -3 79 -10 81 -17z
m995 -322 c-3 -102 -17 -164 -34 -153 -14 8 -11 238 3 252 26 26 33 4 31 -99z
m-603 21 c0 -90 -14 -107 -24 -27 -10 83 -8 107 9 107 12 0 15 -16 15 -80z
m-595 -83 c11 -195 48 -295 144 -400 67 -72 194 -137 327 -168 49 -12 96 -24
104 -28 12 -7 15 -33 15 -142 l0 -133 -54 -31 c-68 -38 -89 -66 -110 -146 -11
-43 -22 -65 -33 -67 -10 -2 -45 24 -86 65 -160 157 -294 431 -338 688 -18 107
-26 453 -11 490 17 42 35 -12 42 -128z m1821 28 c7 -107 -7 -296 -32 -435 -34
-185 -114 -383 -211 -518 -81 -114 -206 -229 -232 -213 -6 4 -16 36 -21 70
-13 96 -38 128 -139 183 l-31 17 0 129 c0 92 4 133 13 140 6 6 41 15 75 22 89
16 227 66 287 104 138 89 229 265 249 481 16 169 32 176 42 20z"/>
</g>
</svg>
