<?xml version="1.0" standalone="no"?>
<!DOCTYPE svg PUBLIC "-//W3C//DTD SVG 20010904//EN"
 "http://www.w3.org/TR/2001/REC-SVG-20010904/DTD/svg10.dtd">
<svg version="1.0" xmlns="http://www.w3.org/2000/svg"
 width="2048.000000pt" height="2048.000000pt" viewBox="0 0 2048.000000 2048.000000"
 preserveAspectRatio="xMidYMid meet">
<metadata>
Created by potrace 1.11, written by Peter Selinger 2001-2013
</metadata>
<g transform="translate(0.000000,2048.000000) scale(0.100000,-0.100000)"
fill="#000000" stroke="none">
<path d="M9740 19819 c-349 -15 -768 -61 -1140 -125 -1070 -184 -2106 -549
-3047 -1072 -1269 -705 -2379 -1707 -3210 -2897 -734 -1052 -1257 -2260 -1518
-3505 -125 -596 -183 -1092 -205 -1745 -9 -277 -8 -337 5 -660 37 -892 198
-1771 479 -2617 363 -1091 909 -2093 1639 -3003 283 -352 808 -900 1137 -1187
852 -741 1762 -1298 2795 -1710 2143 -856 4576 -902 6750 -128 422 150 722
279 1120 480 404 205 606 322 990 575 1452 959 2636 2330 3380 3915 1052 2240
1200 4808 412 7145 -714 2118 -2132 3913 -4024 5093 -1004 625 -2135 1068
-3268 1277 -77 14 -174 32 -215 40 -188 36 -486 74 -815 105 -292 27 -868 36
-1265 19z m915 -3029 c783 -34 1359 -135 2005 -350 1054 -350 1989 -997 2669
-1845 744 -928 1113 -2035 1113 -3335 -1 -920 -177 -1738 -532 -2465 -186
-381 -392 -699 -672 -1037 -131 -158 -478 -506 -636 -636 -450 -373 -909 -646
-1495 -891 -242 -101 -294 -126 -354 -170 -87 -63 -121 -158 -77 -218 27 -38
101 -73 177 -84 34 -5 436 -12 892 -15 1362 -10 1650 12 1930 147 193 93 312
236 425 509 72 173 79 187 121 251 105 156 271 211 417 138 99 -49 158 -133
198 -284 18 -66 19 -128 19 -1225 l0 -1155 -23 -78 c-31 -109 -55 -152 -123
-219 -70 -71 -150 -110 -274 -135 -85 -17 -211 -18 -2325 -18 -2116 0 -2240 1
-2320 18 -255 54 -376 195 -396 462 -8 101 2 232 100 1365 14 157 30 344 36
415 44 513 80 650 212 791 82 87 116 109 359 235 304 157 464 264 674 449 415
367 734 905 933 1575 280 940 337 2367 136 3420 -166 867 -475 1543 -955 2090
-569 647 -1240 1055 -1974 1199 -242 48 -371 60 -650 60 -346 1 -536 -20 -831
-93 -256 -64 -423 -126 -660 -246 -519 -263 -992 -697 -1361 -1250 -533 -800
-795 -1731 -820 -2915 -13 -631 72 -1392 222 -1990 155 -622 348 -1084 588
-1415 230 -315 554 -599 917 -800 272 -151 320 -179 384 -227 115 -86 192
-206 231 -362 32 -126 34 -153 104 -1281 11 -176 28 -436 37 -579 32 -488 5
-648 -127 -777 -85 -82 -190 -121 -379 -139 -143 -14 -4277 -14 -4420 0 -253
24 -388 98 -465 253 -70 143 -68 105 -72 1257 -4 1060 0 1232 34 1350 50 176
167 280 314 280 95 0 150 -22 225 -93 71 -66 108 -134 200 -361 71 -177 157
-296 284 -392 72 -54 232 -122 360 -153 183 -44 329 -60 665 -72 371 -14 1857
-5 1960 11 127 20 195 71 195 148 0 44 -20 81 -69 125 -52 47 -72 57 -283 138
-612 235 -1035 483 -1543 905 -162 135 -610 581 -736 734 -275 332 -457 613
-639 985 -309 633 -469 1308 -511 2159 -19 398 25 944 110 1356 185 891 567
1664 1179 2385 125 147 558 575 702 695 940 779 2042 1224 3375 1364 118 13
330 26 610 39 150 7 408 6 610 -3z m-3050 -3452 c208 -48 385 -147 546 -307
270 -271 416 -667 459 -1248 30 -404 42 -520 70 -659 65 -324 205 -524 454
-648 216 -108 363 -100 426 24 38 75 42 162 37 980 -4 752 -5 789 -25 879 -46
207 -112 282 -348 398 -87 43 -177 96 -202 118 -50 44 -92 123 -92 174 0 48
34 113 82 156 133 120 363 148 1218 149 946 0 1169 -35 1278 -200 34 -51 41
-98 22 -164 -24 -87 -92 -142 -297 -240 -116 -56 -153 -79 -198 -124 -102
-101 -137 -213 -156 -488 -15 -225 -7 -1516 10 -1578 44 -165 175 -201 401
-110 81 32 210 122 271 187 192 210 253 428 299 1068 31 435 89 710 202 954
49 107 151 262 226 343 266 287 727 438 987 323 67 -29 115 -73 143 -128 52
-105 36 -198 -67 -387 -116 -212 -134 -300 -151 -730 -18 -488 -35 -663 -86
-924 -103 -520 -338 -881 -749 -1148 -282 -184 -588 -297 -984 -364 -232 -39
-303 -55 -351 -79 -89 -46 -131 -115 -149 -248 -14 -99 -14 -835 -1 -1055 22
-364 86 -468 375 -615 169 -86 213 -118 252 -185 33 -56 37 -138 10 -188 -92
-175 -327 -214 -1277 -214 -531 0 -778 11 -955 40 -236 40 -345 124 -345 266
0 114 68 180 291 287 262 126 331 233 359 555 7 80 10 317 8 642 -3 463 -5
520 -21 560 -48 122 -113 165 -302 200 -505 92 -683 142 -921 259 -384 188
-687 479 -839 806 -147 314 -210 658 -235 1274 -23 578 -35 641 -161 871 -91
168 -105 231 -73 339 40 135 207 219 409 204 33 -3 101 -14 150 -25z"/>
</g>
</svg>
