<?xml version="1.0" standalone="no"?>
<!DOCTYPE svg PUBLIC "-//W3C//DTD SVG 20010904//EN"
 "http://www.w3.org/TR/2001/REC-SVG-20010904/DTD/svg10.dtd">
<svg version="1.0" xmlns="http://www.w3.org/2000/svg"
 width="1024.000000pt" height="1024.000000pt" viewBox="0 0 1024.000000 1024.000000"
 preserveAspectRatio="xMidYMid meet">
<metadata>
Created by potrace 1.11, written by Peter Selinger 2001-2013
</metadata>
<g transform="translate(0.000000,1024.000000) scale(0.100000,-0.100000)"
fill="#000000" stroke="none">
<path d="M4860 8369 c-588 -32 -1144 -197 -1535 -457 -508 -337 -872 -857
-999 -1425 -51 -224 -60 -314 -60 -592 -1 -203 3 -285 17 -372 87 -548 309
-988 681 -1358 299 -296 637 -496 1031 -611 l110 -32 3 -56 3 -56 -668 0
c-406 0 -693 4 -731 10 -195 32 -285 121 -357 353 l-27 87 -104 0 -104 0 0
-695 0 -695 1235 0 c981 0 1235 3 1235 13 0 6 -14 291 -30 632 -16 341 -30
634 -30 651 0 27 -4 32 -41 43 -125 38 -323 155 -454 269 -312 273 -575 783
-669 1296 -35 187 -46 322 -46 545 0 318 29 526 111 807 102 349 217 552 444
779 125 126 211 190 347 260 255 132 541 195 878 195 182 0 307 -13 459 -46
289 -64 518 -178 701 -347 265 -246 420 -527 524 -949 49 -198 65 -321 72
-548 27 -820 -201 -1508 -641 -1946 -146 -144 -362 -275 -519 -315 -43 -11
-45 -13 -50 -53 -3 -22 -19 -288 -36 -591 -16 -302 -33 -583 -36 -622 l-6 -73
1276 0 1276 0 0 695 0 695 -114 0 -114 0 -27 -87 c-72 -232 -162 -321 -357
-353 -39 -6 -333 -10 -755 -10 l-693 0 0 55 c0 30 2 55 4 55 18 0 255 78 338
111 408 162 797 456 1019 769 355 499 517 1076 470 1670 -39 486 -164 868
-401 1219 -327 488 -777 798 -1398 966 -239 64 -466 99 -757 115 -200 11 -263
11 -475 -1z"/>
<path d="M3700 6456 c0 -40 3 -45 33 -57 17 -7 51 -32 74 -55 67 -68 83 -134
93 -394 15 -373 47 -495 170 -632 79 -89 271 -177 465 -213 63 -12 330 -44
368 -45 5 0 7 -186 4 -412 -4 -452 -6 -466 -63 -523 -37 -37 -124 -65 -202
-65 l-52 0 0 -40 0 -40 515 0 515 0 0 40 0 40 -53 0 c-29 0 -80 7 -112 15 -70
18 -117 61 -134 122 -7 24 -11 189 -11 450 l0 412 58 6 c345 38 542 86 668
161 79 47 177 145 212 213 65 123 81 216 92 511 9 264 18 314 65 376 15 19 44
46 66 61 35 23 39 30 39 69 l0 44 -63 0 c-211 0 -373 -94 -452 -262 -51 -108
-65 -175 -75 -364 -15 -265 -51 -375 -160 -485 -89 -90 -244 -149 -390 -149
l-61 0 3 493 c3 469 4 494 23 532 35 70 99 100 238 111 l77 7 0 43 0 44 -530
0 -530 0 0 -44 0 -43 83 -7 c147 -11 193 -35 218 -112 9 -29 14 -172 16 -531
l4 -493 -69 0 c-38 0 -103 9 -144 19 -151 39 -238 104 -295 221 -48 99 -64
177 -73 365 -13 257 -53 383 -157 496 -94 101 -239 158 -400 159 l-73 0 0 -44z"/>
</g>
</svg>
